<svg xmlns="http://www.w3.org/2000/svg" version="1.1" xmlns:xlink="http://www.w3.org/1999/xlink" xmlns:svgjs="http://svgjs.dev/svgjs" width="2000" height="1500" viewBox="0 0 2000 1500"><rect width="2000" height="1500" fill="#131313"></rect><g transform="matrix(0.75,0,0,0.75,249.090909090909,534.5425595472099)"><svg viewBox="0 0 396 114" data-background-color="#131313" preserveAspectRatio="xMidYMid meet" height="575" width="2000" xmlns="http://www.w3.org/2000/svg" xmlns:xlink="http://www.w3.org/1999/xlink"><g id="tight-bounds" transform="matrix(1,0,0,1,0.2400000000000091,-0.044294002045035086)"><svg viewBox="0 0 395.52 114.08858800409004" height="114.08858800409004" width="395.52"><g><svg viewBox="0 0 696.8227181245328 200.99999999999997" height="114.08858800409004" width="395.52"><g><rect width="18.0362064" height="200.99999999999997" x="239.72981988304093" y="0" fill="#f4dcfe" opacity="1" stroke-width="0" stroke="transparent" fill-opacity="1" class="rect-yte-0" data-fill-palette-color="primary" rx="1%" id="yte-0" data-palette-color="#f4dcfe"></rect></g><g transform="matrix(1,0,0,1,304.98122628304094,0.4999999999999858)"><svg viewBox="0 0 391.84149184149186 200" height="200" width="391.84149184149186"><g id="textblocktransform"><svg viewBox="0 0 391.84149184149186 200" height="200" width="391.84149184149186" id="textblock"><g><svg viewBox="0 0 391.84149184149186 200" height="200" width="391.84149184149186"><g transform="matrix(1,0,0,1,0,0)"><svg width="391.84149184149186" viewBox="1.65 -32.45 84.05 42.9" height="200" data-palette-color="#f4dcfe"><path d="M21.55 10.45Q15.25 10.15 10.75 7.43 6.25 4.7 3.95 0.3 1.65-4.1 1.65-9.4L1.65-9.4Q1.65-14.9 4.3-19.8 6.95-24.7 11.83-27.68 16.7-30.65 23-30.65L23-30.65Q27.9-30.65 31.78-28.6 35.65-26.55 37.8-23.03 39.95-19.5 39.95-15.2L39.95-15.2Q39.95-11.05 38.08-7.43 36.2-3.8 32.58-1.6 28.95 0.6 23.85 0.6L23.85 0.6Q22.05 0.6 22.05-0.85L22.05-0.85Q22.05-1.45 22.95-5.6 23.85-9.75 24.2-11.25L24.2-11.25 23.9-11.35Q21.5-6.8 19.23-3.95 16.95-1.1 14.55 0.6L14.55 0.6Q12.6 0.6 11.58-1.25 10.55-3.1 10.55-6.2L10.55-6.2Q10.55-10.3 12.28-14.2 14-18.1 16.68-20.55 19.35-23 22-23L22-23 27-22.2 27.45-23.45 27.7-23.5 29.25-22.75 29.65-22.15Q29.4-21.35 28.65-18.48 27.9-15.6 26.98-11.33 26.05-7.05 25.45-2.9L25.45-2.9 25.65-2.7Q30.95-2.7 33.73-5.75 36.5-8.8 36.5-14L36.5-14Q36.5-18.35 34.68-21.48 32.85-24.6 29.53-26.23 26.2-27.85 21.75-27.85L21.75-27.85Q16.85-27.85 13.08-25.45 9.3-23.05 7.25-19.05 5.2-15.05 5.2-10.3L5.2-10.3Q5.2-5.3 7.1-1.23 9 2.85 12.95 5.4 16.9 7.95 22.85 8.3L22.85 8.3 22.85 8.65 21.55 10.45ZM15.5-3.45Q16.4-3.45 18.03-5.43 19.65-7.4 21.65-10.88 23.65-14.35 25.5-18.65L25.5-18.65Q24.65-19.2 23.23-19.75 21.8-20.3 20.45-20.3L20.45-20.3Q18.9-20.3 17.4-18.68 15.9-17.05 14.98-14.35 14.05-11.65 14.05-8.65L14.05-8.65Q14.05-6.55 14.48-5 14.9-3.45 15.5-3.45L15.5-3.45ZM49.05 0.6Q47.7 0.6 46.97-0.23 46.25-1.05 46.25-2.25L46.25-2.25Q46.25-3.55 47.1-4.45 47.95-5.35 49.35-5.35L49.35-5.35Q50.7-5.35 51.45-4.53 52.2-3.7 52.2-2.5L52.2-2.5Q52.2-1.2 51.32-0.3 50.45 0.6 49.05 0.6L49.05 0.6ZM73.8 0.6Q69.3 0.6 65.9-1.3 62.5-3.2 60.67-6.68 58.85-10.15 58.85-14.85L58.85-14.85Q58.85-19.85 61.1-23.88 63.35-27.9 67.32-30.18 71.3-32.45 76.3-32.45L76.3-32.45Q78.15-32.45 80.07-32.18 82-31.9 83.32-31.63 84.65-31.35 85-31.25L85-31.25 85.2-30.95Q85.09-30.65 84.87-29.5 84.65-28.35 84.37-26.5 84.09-24.65 83.95-22.6L83.95-22.6 81.55-22.4Q81.59-22.65 81.65-23.33 81.7-24 81.7-24.85L81.7-24.85Q81.7-29.5 74.34-29.5L74.34-29.5Q71.05-29.5 68.55-27.9 66.05-26.3 64.7-23.38 63.35-20.45 63.35-16.5L63.35-16.5Q63.35-12.15 64.77-8.85 66.2-5.55 68.8-3.73 71.4-1.9 74.8-1.9L74.8-1.9Q78.2-1.9 80.27-3.83 82.34-5.75 83.3-9.8L83.3-9.8 85.7-10Q85.55-9.25 85.05-6.68 84.55-4.1 84.34-1.85L84.34-1.85 84.05-1.4Q84.05-1.35 82.52-0.83 81-0.3 78.72 0.15 76.45 0.6 73.8 0.6L73.8 0.6Z" opacity="1" transform="matrix(1,0,0,1,0,0)" fill="#f4dcfe" class="wordmark-text-0" data-fill-palette-color="primary" id="text-0"></path></svg></g></svg></g></svg></g></svg></g><g transform="matrix(1,0,0,1,0,0.4999999999999858)"><svg viewBox="0 0 192.51461988304092 200" height="200" width="192.51461988304092"><g><svg xmlns="http://www.w3.org/2000/svg" xmlns:xlink="http://www.w3.org/1999/xlink" version="1.1" x="0" y="0" viewBox="9.8 4 82.3 85.5" enable-background="new 0 0 100 100" xml:space="preserve" height="200" width="192.51461988304092" class="icon-icon-0" data-fill-palette-color="accent" id="icon-0"><g fill="#eeff5f" data-fill-palette-color="accent"><g fill="#eeff5f" data-fill-palette-color="accent"><path d="M38.7 46.7C38.7 54.7 45.2 61.2 53.2 61.2S67.7 54.7 67.7 46.7 61.2 32.2 53.2 32.2 38.7 38.7 38.7 46.7" fill="#eeff5f" data-fill-palette-color="accent"></path><path d="M71.5 57.3C70.9 58.4 70.2 59.4 69.4 60.4 65.4 65.3 59.4 68.4 52.6 68.4 40.7 68.4 31 58.7 31 46.7 31 34.8 40.7 25.1 52.6 25.1 59.3 25.1 65.3 28.2 69.3 32.9 70.1 33.8 70.8 34.8 71.4 35.9L92.1 30.1C90.6 26.6 88.7 23.4 86.5 20.5 78.6 10.5 66.4 4 52.6 4 29 4 9.8 23.1 9.8 46.7S29 89.5 52.6 89.5C70.3 89.5 85.6 78.7 92.1 63.3z" fill="#eeff5f" data-fill-palette-color="accent"></path></g></g></svg></g></svg></g></svg></g><defs></defs></svg><rect width="395.52" height="114.08858800409004" fill="none" stroke="none" visibility="hidden"></rect></g></svg></g></svg>