<svg xmlns="http://www.w3.org/2000/svg" version="1.1" xmlns:xlink="http://www.w3.org/1999/xlink" xmlns:svgjs="http://svgjs.dev/svgjs" width="1500" height="935" viewBox="0 0 1500 935"><g transform="matrix(1,0,0,1,-0.9090909090909918,0.3785425101215196)"><svg viewBox="0 0 396 247" data-background-color="#000000" preserveAspectRatio="xMidYMid meet" height="935" width="1500" xmlns="http://www.w3.org/2000/svg" xmlns:xlink="http://www.w3.org/1999/xlink"><g id="tight-bounds" transform="matrix(1,0,0,1,0.2400000000000091,-0.09999999999999432)"><svg viewBox="0 0 395.52 247.2" height="247.2" width="395.52"><rect width="395.52" height="247.20000000000005" fill="url(#34a0cef0-341e-4920-a8e8-317edf722fcb)" mask="url(#a7d34547-d172-43a7-8422-55ab62f09eeb)" data-fill-palette-color="tertiary"></rect><g><svg></svg></g><g><svg viewBox="0 0 395.52 247.2" height="247.2" width="395.52"><g transform="matrix(1,0,0,1,75.54432,59.89753721815521)"><svg viewBox="0 0 244.43135999999998 127.40492556368957" height="127.40492556368957" width="244.43135999999998"><g><svg viewBox="0 0 244.43135999999998 127.40492556368957" height="127.40492556368957" width="244.43135999999998"><g><svg viewBox="0 0 244.43136 127.40492556368959" height="127.40492556368957" width="244.43135999999998"><g><svg viewBox="0 0 244.43136 127.40492556368959" height="127.40492556368959" width="244.43136"><g id="textblocktransform"><svg viewBox="0 0 244.43136 127.40492556368959" height="127.40492556368959" width="244.43136" id="textblock"><g><svg viewBox="0 0 244.43136 127.40492556368959" height="127.40492556368959" width="244.43136"><g transform="matrix(1,0,0,1,0,0)"><svg width="244.43136" viewBox="2 -34.8 68.3 35.599999999999994" height="127.40492556368959" data-palette-color="url(#405ef782-8614-4266-955b-0b9008b11c2c)"></svg></g></svg></g></svg></g></svg></g></svg></g></svg></g></svg></g><g><path d="M245.816 0c68.262 0 123.6 55.338 123.6 123.6 0 68.262-55.338 123.6-123.6 123.6-38.342 0-72.606-17.458-95.277-44.859h7.584c21.575 24.012 52.87 39.114 87.693 39.114 65.09 0 117.855-52.766 117.855-117.855 0-65.09-52.766-117.855-117.855-117.855-34.822 0-66.117 15.102-87.693 39.114l-7.584 0c22.671-27.401 56.935-44.859 95.277-44.859z" fill="url(#34a0cef0-341e-4920-a8e8-317edf722fcb)" stroke="transparent" data-fill-palette-color="tertiary"></path></g></svg></g><defs></defs><mask id="5018c95b-63b5-4616-8ad9-b55419877512"><g id="SvgjsG2805"><svg viewBox="0 0 395.52 247.2" height="247.2" width="395.52"><g><svg></svg></g><g><svg viewBox="0 0 395.52 247.2" height="247.2" width="395.52"><g transform="matrix(1,0,0,1,75.54432,59.89753721815521)"><svg viewBox="0 0 244.43135999999998 127.40492556368957" height="127.40492556368957" width="244.43135999999998"><g><svg viewBox="0 0 244.43135999999998 127.40492556368957" height="127.40492556368957" width="244.43135999999998"><g><svg viewBox="0 0 244.43136 127.40492556368959" height="127.40492556368957" width="244.43135999999998"><g><svg viewBox="0 0 244.43136 127.40492556368959" height="127.40492556368959" width="244.43136"><g id="SvgjsG2804"><svg viewBox="0 0 244.43136 127.40492556368959" height="127.40492556368959" width="244.43136" id="SvgjsSvg2803"><g><svg viewBox="0 0 244.43136 127.40492556368959" height="127.40492556368959" width="244.43136"><g transform="matrix(1,0,0,1,0,0)"><svg width="244.43136" viewBox="2 -34.8 68.3 35.599999999999994" height="127.40492556368959" data-palette-color="url(#405ef782-8614-4266-955b-0b9008b11c2c)"><path d="M15.3-6.65L15.3-6.65Q12.8-6.65 11.65-8.38 10.5-10.1 10.5-13.75L10.5-13.75Q10.5-17.65 12.03-20.73 13.55-23.8 16.18-25.6 18.8-27.4 22.05-27.4L22.05-27.4Q24.1-27.4 25.73-26.85 27.35-26.3 28.25-25.9L28.25-25.9 26.9-21.25Q25.75-22.15 24.28-22.85 22.8-23.55 21.55-23.95 20.3-24.35 19.8-24.35L19.8-24.35Q18.85-24.35 17.98-23.15 17.1-21.95 16.55-19.95 16-17.95 16-15.5L16-15.5Q16-13.4 16.23-12.05 16.45-10.7 17.1-10.7L17.1-10.7Q17.6-10.7 18.82-11.8 20.05-12.9 21.73-15.73 23.4-18.55 25.2-23.65L25.2-23.65 26.3-23.65 26.25-19.95Q23.95-13.05 21.18-9.85 18.4-6.65 15.3-6.65ZM2-13.15L2-13.15Q2-17.5 3.3-20.98 4.6-24.45 6.83-27.05 9.05-29.65 11.85-31.38 14.65-33.1 17.68-33.95 20.7-34.8 23.55-34.8L23.55-34.8Q28.35-34.8 31.93-33.2 35.5-31.6 37.48-28.58 39.45-25.55 39.45-21.25L39.45-21.25Q39.45-18.1 38.43-15.43 37.4-12.75 35.65-10.8 33.9-8.85 31.7-7.75 29.5-6.65 27.15-6.65L27.15-6.65Q25.4-6.65 24.6-7.55 23.8-8.45 23.8-9.55L23.8-9.55Q23.8-10.55 24.05-11.95 24.3-13.35 24.6-15.7L24.6-15.7 25-18.8 24.4-19.9 25.4-26Q25.9-26.05 26.75-26.15 27.6-26.25 28.48-26.35 29.35-26.45 30.03-26.53 30.7-26.6 30.9-26.6L30.9-26.6Q31.5-26.6 31.5-26.1L31.5-26.1Q31.5-25.9 31.45-25.68 31.4-25.45 31.25-24.95L31.25-24.95Q30.8-23.55 30.13-21.4 29.45-19.25 29.15-16.05L29.15-16.05 28.9-13.55Q28.7-11.8 28.98-11.25 29.25-10.7 30-10.7L30-10.7Q30.85-10.7 32.15-11.85 33.45-13 34.45-15.23 35.45-17.45 35.45-20.7L35.45-20.7Q35.45-24.25 33.88-26.68 32.3-29.1 29.53-30.33 26.75-31.55 23.1-31.55L23.1-31.55Q19.65-31.55 16.57-30.3 13.5-29.05 11.13-26.68 8.75-24.3 7.38-21.03 6-17.75 6-13.7L6-13.7Q6-8.15 9.3-5.33 12.6-2.5 18.35-2.5L18.35-2.5Q22.3-2.5 24.53-3.08 26.75-3.65 27.7-3.85L27.7-3.85Q27.95-3.9 28.15-3.93 28.35-3.95 28.45-3.95L28.45-3.95Q29-3.95 29.4-3.8 29.8-3.65 29.8-3.4L29.8-3.4Q29.8-2.8 28.63-2.08 27.45-1.35 25.6-0.73 23.75-0.1 21.68 0.33 19.6 0.75 17.8 0.75L17.8 0.75Q13.05 0.75 9.47-0.88 5.9-2.5 3.95-5.63 2-8.75 2-13.15ZM56.4 0.8L56.4 0.8Q52.2 0.8 49.07-0.88 45.95-2.55 44.2-5.9 42.45-9.25 42.45-14.15L42.45-14.15Q42.45-18.65 43.87-22.43 45.3-26.2 47.9-28.98 50.5-31.75 54.1-33.27 57.7-34.8 62.1-34.8L62.1-34.8Q66.2-34.8 68.25-33.93 70.3-33.05 70.3-30.8L70.3-30.8Q70.3-29.6 69.87-28.75 69.45-27.9 68.95-27.9L68.95-27.9Q68.5-27.9 67.92-28.2 67.35-28.5 66.65-28.85L66.65-28.85Q65.45-29.45 64.02-30.13 62.6-30.8 60.25-30.8L60.25-30.8Q57.2-30.8 54.67-28.8 52.15-26.8 50.62-23.28 49.1-19.75 49.1-15.05L49.1-15.05Q49.1-11.1 50.27-8.45 51.45-5.8 53.4-4.5 55.35-3.2 57.65-3.2L57.65-3.2Q59.55-3.2 61.05-3.93 62.55-4.65 63.67-5.6 64.8-6.55 65.7-7.28 66.6-8 67.3-8L67.3-8Q67.85-8 68.22-7.75 68.6-7.5 68.6-6.7L68.6-6.7Q68.6-4.75 66.95-3.05 65.3-1.35 62.55-0.28 59.8 0.8 56.4 0.8Z" opacity="1" transform="matrix(1,0,0,1,0,0)" fill="white" class="wordmark-text-0" id="SvgjsPath2802"></path></svg></g></svg></g></svg></g></svg></g></svg></g></svg></g></svg></g><g><path d="M245.816 0c68.262 0 123.6 55.338 123.6 123.6 0 68.262-55.338 123.6-123.6 123.6-38.342 0-72.606-17.458-95.277-44.859h7.584c21.575 24.012 52.87 39.114 87.693 39.114 65.09 0 117.855-52.766 117.855-117.855 0-65.09-52.766-117.855-117.855-117.855-34.822 0-66.117 15.102-87.693 39.114l-7.584 0c22.671-27.401 56.935-44.859 95.277-44.859z" fill="black" stroke="transparent"></path></g></svg></g><defs><mask></mask></defs></svg><rect width="395.52" height="247.2" fill="black" stroke="none" visibility="hidden"></rect></g></mask><linearGradient x1="0" x2="1" y1="0.548" y2="0.55" id="405ef782-8614-4266-955b-0b9008b11c2c"><stop stop-color="#ff6cab" offset="0"></stop><stop stop-color="#7366ff" offset="1"></stop></linearGradient><rect width="395.52" height="247.20000000000002" fill="url(#405ef782-8614-4266-955b-0b9008b11c2c)" mask="url(#5018c95b-63b5-4616-8ad9-b55419877512)" data-fill-palette-color="primary"></rect><mask id="a7d34547-d172-43a7-8422-55ab62f09eeb"><g id="SvgjsG2828"><svg viewBox="0 0 395.52 247.2" height="247.2" width="395.52"><g><svg></svg></g><g><svg viewBox="0 0 395.52 247.2" height="247.2" width="395.52"><g transform="matrix(1,0,0,1,75.54432,59.89753721815521)"><svg viewBox="0 0 244.43135999999998 127.40492556368957" height="127.40492556368957" width="244.43135999999998"><g><svg viewBox="0 0 244.43135999999998 127.40492556368957" height="127.40492556368957" width="244.43135999999998"><g><svg viewBox="0 0 244.43136 127.40492556368959" height="127.40492556368957" width="244.43135999999998"><g><svg viewBox="0 0 244.43136 127.40492556368959" height="127.40492556368959" width="244.43136"><g id="SvgjsG2827"><svg viewBox="0 0 244.43136 127.40492556368959" height="127.40492556368959" width="244.43136" id="SvgjsSvg2826"><g><svg viewBox="0 0 244.43136 127.40492556368959" height="127.40492556368959" width="244.43136"><g transform="matrix(1,0,0,1,0,0)"><svg width="244.43136" viewBox="2 -34.8 68.3 35.599999999999994" height="127.40492556368959" data-palette-color="url(#405ef782-8614-4266-955b-0b9008b11c2c)"></svg></g></svg></g></svg></g></svg></g></svg></g></svg></g></svg></g><g><path d="M245.816 0c68.262 0 123.6 55.338 123.6 123.6 0 68.262-55.338 123.6-123.6 123.6-38.342 0-72.606-17.458-95.277-44.859h7.584c21.575 24.012 52.87 39.114 87.693 39.114 65.09 0 117.855-52.766 117.855-117.855 0-65.09-52.766-117.855-117.855-117.855-34.822 0-66.117 15.102-87.693 39.114l-7.584 0c22.671-27.401 56.935-44.859 95.277-44.859z" fill="white" stroke="transparent"></path></g></svg></g><defs><mask></mask></defs><mask><g id="SvgjsG2825"><svg viewBox="0 0 395.52 247.2" height="247.2" width="395.52"><g><svg></svg></g><g><svg viewBox="0 0 395.52 247.2" height="247.2" width="395.52"><g transform="matrix(1,0,0,1,75.54432,59.89753721815521)"><svg viewBox="0 0 244.43135999999998 127.40492556368957" height="127.40492556368957" width="244.43135999999998"><g><svg viewBox="0 0 244.43135999999998 127.40492556368957" height="127.40492556368957" width="244.43135999999998"><g><svg viewBox="0 0 244.43136 127.40492556368959" height="127.40492556368957" width="244.43135999999998"><g><svg viewBox="0 0 244.43136 127.40492556368959" height="127.40492556368959" width="244.43136"><g id="SvgjsG2824"><svg viewBox="0 0 244.43136 127.40492556368959" height="127.40492556368959" width="244.43136" id="SvgjsSvg2823"><g><svg viewBox="0 0 244.43136 127.40492556368959" height="127.40492556368959" width="244.43136"><g transform="matrix(1,0,0,1,0,0)"><svg width="244.43136" viewBox="2 -34.8 68.3 35.599999999999994" height="127.40492556368959" data-palette-color="url(#405ef782-8614-4266-955b-0b9008b11c2c)"><path d="M15.3-6.65L15.3-6.65Q12.8-6.65 11.65-8.38 10.5-10.1 10.5-13.75L10.5-13.75Q10.5-17.65 12.03-20.73 13.55-23.8 16.18-25.6 18.8-27.4 22.05-27.4L22.05-27.4Q24.1-27.4 25.73-26.85 27.35-26.3 28.25-25.9L28.25-25.9 26.9-21.25Q25.75-22.15 24.28-22.85 22.8-23.55 21.55-23.95 20.3-24.35 19.8-24.35L19.8-24.35Q18.85-24.35 17.98-23.15 17.1-21.95 16.55-19.95 16-17.95 16-15.5L16-15.5Q16-13.4 16.23-12.05 16.45-10.7 17.1-10.7L17.1-10.7Q17.6-10.7 18.82-11.8 20.05-12.9 21.73-15.73 23.4-18.55 25.2-23.65L25.2-23.65 26.3-23.65 26.25-19.95Q23.95-13.05 21.18-9.85 18.4-6.65 15.3-6.65ZM2-13.15L2-13.15Q2-17.5 3.3-20.98 4.6-24.45 6.83-27.05 9.05-29.65 11.85-31.38 14.65-33.1 17.68-33.95 20.7-34.8 23.55-34.8L23.55-34.8Q28.35-34.8 31.93-33.2 35.5-31.6 37.48-28.58 39.45-25.55 39.45-21.25L39.45-21.25Q39.45-18.1 38.43-15.43 37.4-12.75 35.65-10.8 33.9-8.85 31.7-7.75 29.5-6.65 27.15-6.65L27.15-6.65Q25.4-6.65 24.6-7.55 23.8-8.45 23.8-9.55L23.8-9.55Q23.8-10.55 24.05-11.95 24.3-13.35 24.6-15.7L24.6-15.7 25-18.8 24.4-19.9 25.4-26Q25.9-26.05 26.75-26.15 27.6-26.25 28.48-26.35 29.35-26.45 30.03-26.53 30.7-26.6 30.9-26.6L30.9-26.6Q31.5-26.6 31.5-26.1L31.5-26.1Q31.5-25.9 31.45-25.68 31.4-25.45 31.25-24.95L31.25-24.95Q30.8-23.55 30.13-21.4 29.45-19.25 29.15-16.05L29.15-16.05 28.9-13.55Q28.7-11.8 28.98-11.25 29.25-10.7 30-10.7L30-10.7Q30.85-10.7 32.15-11.85 33.45-13 34.45-15.23 35.45-17.45 35.45-20.7L35.45-20.7Q35.45-24.25 33.88-26.68 32.3-29.1 29.53-30.33 26.75-31.55 23.1-31.55L23.1-31.55Q19.65-31.55 16.57-30.3 13.5-29.05 11.13-26.68 8.75-24.3 7.38-21.03 6-17.75 6-13.7L6-13.7Q6-8.15 9.3-5.33 12.6-2.5 18.35-2.5L18.35-2.5Q22.3-2.5 24.53-3.08 26.75-3.65 27.7-3.85L27.7-3.85Q27.95-3.9 28.15-3.93 28.35-3.95 28.45-3.95L28.45-3.95Q29-3.95 29.4-3.8 29.8-3.65 29.8-3.4L29.8-3.4Q29.8-2.8 28.63-2.08 27.45-1.35 25.6-0.73 23.75-0.1 21.68 0.33 19.6 0.75 17.8 0.75L17.8 0.75Q13.05 0.75 9.47-0.88 5.9-2.5 3.95-5.63 2-8.75 2-13.15ZM56.4 0.8L56.4 0.8Q52.2 0.8 49.07-0.88 45.95-2.55 44.2-5.9 42.45-9.25 42.45-14.15L42.45-14.15Q42.45-18.65 43.87-22.43 45.3-26.2 47.9-28.98 50.5-31.75 54.1-33.27 57.7-34.8 62.1-34.8L62.1-34.8Q66.2-34.8 68.25-33.93 70.3-33.05 70.3-30.8L70.3-30.8Q70.3-29.6 69.87-28.75 69.45-27.9 68.95-27.9L68.95-27.9Q68.5-27.9 67.92-28.2 67.35-28.5 66.65-28.85L66.65-28.85Q65.45-29.45 64.02-30.13 62.6-30.8 60.25-30.8L60.25-30.8Q57.2-30.8 54.67-28.8 52.15-26.8 50.62-23.28 49.1-19.75 49.1-15.05L49.1-15.05Q49.1-11.1 50.27-8.45 51.45-5.8 53.4-4.5 55.35-3.2 57.65-3.2L57.65-3.2Q59.55-3.2 61.05-3.93 62.55-4.65 63.67-5.6 64.8-6.55 65.7-7.28 66.6-8 67.3-8L67.3-8Q67.85-8 68.22-7.75 68.6-7.5 68.6-6.7L68.6-6.7Q68.6-4.75 66.95-3.05 65.3-1.35 62.55-0.28 59.8 0.8 56.4 0.8Z" opacity="1" transform="matrix(1,0,0,1,0,0)" fill="black" class="wordmark-text-0" id="SvgjsPath2822"></path></svg></g></svg></g></svg></g></svg></g></svg></g></svg></g></svg></g><g><path d="M245.816 0c68.262 0 123.6 55.338 123.6 123.6 0 68.262-55.338 123.6-123.6 123.6-38.342 0-72.606-17.458-95.277-44.859h7.584c21.575 24.012 52.87 39.114 87.693 39.114 65.09 0 117.855-52.766 117.855-117.855 0-65.09-52.766-117.855-117.855-117.855-34.822 0-66.117 15.102-87.693 39.114l-7.584 0c22.671-27.401 56.935-44.859 95.277-44.859z" fill="black" stroke="transparent"></path></g></svg></g><defs><mask></mask></defs></svg><rect width="395.52" height="247.2" fill="black" stroke="none" visibility="hidden"></rect></g></mask></svg><rect width="395.52" height="247.2" fill="black" stroke="none" visibility="hidden"></rect></g></mask><linearGradient x1="0" x2="1" y1="0.548" y2="0.55" id="34a0cef0-341e-4920-a8e8-317edf722fcb"><stop stop-color="#ff6cab" offset="0"></stop><stop stop-color="#7366ff" offset="1"></stop></linearGradient></svg><rect width="395.52" height="247.2" fill="none" stroke="none" visibility="hidden"></rect></g></svg></g></svg>